<svg width="30" height="25" viewBox="0 0 30 25" fill="none" xmlns="http://www.w3.org/2000/svg">
<path d="M0 1.19048C0 0.874742 0.121566 0.57194 0.337954 0.348683C0.554342 0.125425 0.847827 0 1.15385 0H26.5385C26.8445 0 27.138 0.125425 27.3544 0.348683C27.5707 0.57194 27.6923 0.874742 27.6923 1.19048C27.6923 1.50621 27.5707 1.80901 27.3544 2.03227C27.138 2.25553 26.8445 2.38095 26.5385 2.38095H1.15385C0.847827 2.38095 0.554342 2.25553 0.337954 2.03227C0.121566 1.80901 0 1.50621 0 1.19048ZM1.15385 11.9048H26.5385C26.8445 11.9048 27.138 11.7793 27.3544 11.5561C27.5707 11.3328 27.6923 11.03 27.6923 10.7143C27.6923 10.3986 27.5707 10.0957 27.3544 9.87249C27.138 9.64923 26.8445 9.52381 26.5385 9.52381H1.15385C0.847827 9.52381 0.554342 9.64923 0.337954 9.87249C0.121566 10.0957 0 10.3986 0 10.7143C0 11.03 0.121566 11.3328 0.337954 11.5561C0.554342 11.7793 0.847827 11.9048 1.15385 11.9048ZM16.1538 19.0476H1.15385C0.847827 19.0476 0.554342 19.173 0.337954 19.3963C0.121566 19.6196 0 19.9224 0 20.2381C0 20.5538 0.121566 20.8566 0.337954 21.0799C0.554342 21.3031 0.847827 21.4286 1.15385 21.4286H16.1538C16.4599 21.4286 16.7534 21.3031 16.9697 21.0799C17.1861 20.8566 17.3077 20.5538 17.3077 20.2381C17.3077 19.9224 17.1861 19.6196 16.9697 19.3963C16.7534 19.173 16.4599 19.0476 16.1538 19.0476ZM28.8462 19.0476H26.5385V16.6667C26.5385 16.3509 26.4169 16.0481 26.2005 15.8249C25.9841 15.6016 25.6906 15.4762 25.3846 15.4762C25.0786 15.4762 24.7851 15.6016 24.5687 15.8249C24.3523 16.0481 24.2308 16.3509 24.2308 16.6667V19.0476H21.9231C21.6171 19.0476 21.3236 19.173 21.1072 19.3963C20.8908 19.6196 20.7692 19.9224 20.7692 20.2381C20.7692 20.5538 20.8908 20.8566 21.1072 21.0799C21.3236 21.3031 21.6171 21.4286 21.9231 21.4286H24.2308V23.8095C24.2308 24.1253 24.3523 24.4281 24.5687 24.6513C24.7851 24.8746 25.0786 25 25.3846 25C25.6906 25 25.9841 24.8746 26.2005 24.6513C26.4169 24.4281 26.5385 24.1253 26.5385 23.8095V21.4286H28.8462C29.1522 21.4286 29.4457 21.3031 29.662 21.0799C29.8784 20.8566 30 20.5538 30 20.2381C30 19.9224 29.8784 19.6196 29.662 19.3963C29.4457 19.173 29.1522 19.0476 28.8462 19.0476Z" fill="black" fill-opacity="0.5"/>
</svg>
